# xmcd CD database file
#
# Track frame offsets:
#	150
#	14888
#	30001
#	47674
#	72155
#
# Disc length: 1165 seconds
#
# Revision: 3
# Processed by: cddbd v1.5.1PL2 Copyright (c) Steve Scherf et al.
# Submitted via: CDex 1.51
#
DISCID=37048b05
DTITLE=THE GOOD TERMS - まちがいの間違い
DYEAR=2005
DGENRE=Rock
TTITLE0=桜吹雪
TTITLE1=マサハル
TTITLE2=一番星
TTITLE3=背中で語れ
TTITLE4=幸せの形
EXTD=YEAR: 2005
EXTT0=
EXTT1=
EXTT2=
EXTT3=
EXTT4=
PLAYORDER=
